<?xml version="1.0" encoding="UTF-8" standalone="no"?>
<!DOCTYPE svg PUBLIC "-//W3C//DTD SVG 1.1//EN" "http://www.w3.org/Graphics/SVG/1.1/DTD/svg11.dtd">
<svg width="100%" height="100%" viewBox="0 0 4000 4000" version="1.1" xmlns="http://www.w3.org/2000/svg" xmlns:xlink="http://www.w3.org/1999/xlink" xml:space="preserve" xmlns:serif="http://www.serif.com/" style="fill-rule:evenodd;clip-rule:evenodd;stroke-miterlimit:10;">
    <g transform="matrix(2.40297,0,0,2.40297,-252.427,-112.694)">
        <g>
            <rect x="714.9" y="626.8" width="444.8" height="147" style="fill:rgb(152,123,97);"/>
            <path d="M1138.8,1583.9L738.8,1583.9L665.2,773.8L1212.5,773.8L1138.8,1583.9Z" style="fill:rgb(107,65,29);fill-rule:nonzero;"/>
            <rect x="626.8" y="710.8" width="621.1" height="105" style="fill:rgb(166,134,107);"/>
            <g>
                <circle cx="937.3" cy="1178.8" r="179.3" style="fill:rgb(166,134,107);"/>
                <path d="M1169.4,1247.7L708.8,1253.9L695.7,1109.8L1181.9,1109.8L1169.4,1247.7Z" style="fill:rgb(166,134,107);fill-rule:nonzero;"/>
            </g>
            <circle cx="937.3" cy="1178.8" r="136.3" style="fill:rgb(203,187,160);"/>
            <path d="M872.2,1091.9C797.7,1132.2 804.4,1238.5 872.6,1281.1" style="fill:none;fill-rule:nonzero;stroke:rgb(99,78,66);stroke-width:12px;"/>
            <ellipse cx="867.3" cy="1186.5" rx="25.4" ry="33.7" style="fill:none;stroke:rgb(99,78,66);stroke-width:12px;"/>
            <g>
                <path d="M915.4,1266.3C916.3,1246.3 915,1226.1 911.6,1206.4C908.5,1188.5 892.2,1120.2 924.7,1118.2" style="fill:none;fill-rule:nonzero;stroke:rgb(99,78,66);stroke-width:12px;"/>
                <path d="M910.1,1182.7L929.9,1177.7" style="fill:none;fill-rule:nonzero;stroke:rgb(99,78,66);stroke-width:12px;"/>
            </g>
            <g>
                <path d="M945.8,1266.3C946.7,1246.3 945.4,1226.1 942,1206.4C938.9,1188.5 922.6,1120.2 955.1,1118.2" style="fill:none;fill-rule:nonzero;stroke:rgb(99,78,66);stroke-width:12px;"/>
                <path d="M940.5,1182.7L960.3,1177.7" style="fill:none;fill-rule:nonzero;stroke:rgb(99,78,66);stroke-width:12px;"/>
            </g>
            <path d="M1006.8,1220.7C990.6,1219.3 984.5,1198.4 980.3,1185.3C976.6,1173.6 972.1,1152.7 989.3,1152.2C994.7,1152 999.7,1155.2 1003.2,1159.3C1004.5,1160.9 1005.7,1162.7 1006.3,1164.7C1008.2,1171.1 1003.6,1178.1 997.6,1181.1C991.6,1184.1 984.6,1184.1 977.9,1184.1C973.3,1184.1 968.6,1184.1 964,1184" style="fill:none;fill-rule:nonzero;stroke:rgb(99,78,66);stroke-width:12px;"/>
            <path d="M1054.5,1220.7C1038.3,1219.3 1032.2,1198.4 1028,1185.3C1024.3,1173.6 1019.8,1152.7 1037,1152.2C1042.4,1152 1047.4,1155.2 1050.9,1159.3C1052.2,1160.9 1053.4,1162.7 1054,1164.7C1055.9,1171.1 1051.3,1178.1 1045.3,1181.1C1039.3,1184.1 1032.3,1184.1 1025.6,1184.1C1021,1184.1 1016.3,1184.1 1011.7,1184" style="fill:none;fill-rule:nonzero;stroke:rgb(99,78,66);stroke-width:12px;"/>
            <g>
                <path d="M869.3,174.5C876.3,174.9 883.3,175.4 890.3,176.1C897.3,176.8 904.3,177.8 911.3,179.1C925.2,181.7 939.1,185.9 951.7,193.7L954,195.3C954.8,195.8 955.5,196.3 956.3,196.9L958.5,198.6C959.2,199.2 959.9,199.8 960.6,200.5C962,201.7 963.3,203.2 964.6,204.5C965.2,205.2 965.8,206 966.4,206.7C967,207.4 967.6,208.2 968.1,209C972.6,215.2 975.7,222.5 977.1,230.1L977.6,232.9C977.8,233.8 977.8,234.8 977.9,235.7L978.2,238.5L978.3,241.4C978.3,245.3 977.8,249.3 976.9,253.1C975.1,260.8 971.4,268 966.7,274.1C962,280.2 956.5,285.5 950.5,290C947.5,292.3 944.5,294.4 941.3,296.3C938.2,298.3 935,300.1 931.7,301.8C928.5,303.5 925.2,305.1 921.8,306.6C918.5,308.1 915.1,309.4 911.7,310.7C910,311.3 908.3,311.9 906.6,312.5L901.5,314.2C898.2,315.3 895.1,316.4 892,317.6C885.9,320 880.3,322.9 876.1,326.5C874,328.3 872.4,330.3 871.2,332.5C870,334.7 869.2,337.1 869,339.4C868.5,344.1 870.2,349.2 873.5,353.8C876.8,358.4 881.4,362.6 886.5,365.8C889.1,367.4 891.8,368.9 894.6,370.1C896,370.7 897.4,371.2 898.9,371.7L900,372L901.2,372.3L903.6,373C910,374.7 916.7,375.9 923.6,377.3C930.5,378.7 937.7,380.2 944.9,382.7C946.7,383.4 948.5,383.9 950.3,384.7C951.2,385.1 952.1,385.4 953,385.8L955.6,387.1C956,387.3 956.5,387.5 956.9,387.8L958.2,388.5L960.8,390L963.3,391.7L964.5,392.6C964.9,392.9 965.3,393.2 965.7,393.6C972.2,398.8 977.2,405.5 980.6,412.8C984,420.1 985.7,428 986,435.8C986.3,443.7 985.1,451.6 982.4,459.1C979.7,466.5 975.3,473.5 969.4,479C967.9,480.4 966.4,481.6 964.9,482.8C963.3,483.9 961.7,485.1 960.1,486C956.9,488 953.5,489.7 950.2,491.2C943.5,494.3 936.9,496.7 930.7,499.3C927.6,500.6 924.5,502 921.6,503.6C918.7,505.2 916,506.8 913.4,508.8C910.8,510.8 908.4,512.9 906.2,515.3C904,517.7 901.9,520.3 900,523C892.5,533.9 888.3,547.3 887.7,560.8C887.6,564.2 887.7,567.6 888,571C888.4,574.4 889,577.8 889.8,581.1C890.7,584.4 891.8,587.7 893.1,590.9C894.5,594.1 896.2,597.1 898.1,600.1C895.8,597.4 893.8,594.5 892,591.5C890.3,588.4 888.7,585.2 887.5,581.9C886.3,578.5 885.3,575.1 884.6,571.6C883.9,568.1 883.5,564.5 883.3,560.9C883.1,557.3 883.2,553.7 883.5,550.1C883.9,546.5 884.5,542.9 885.3,539.3C886.2,535.8 887.3,532.3 888.6,528.8C890,525.4 891.6,522.1 893.4,518.8C895.3,515.6 897.4,512.6 899.8,509.6C902.2,506.7 904.8,504 907.7,501.5C910.5,499 913.7,496.8 916.8,494.9C920,493 923.2,491.3 926.4,489.7C932.9,486.5 939.3,483.8 945.2,480.7C948.2,479.2 951,477.5 953.6,475.7C954.9,474.8 956.1,473.8 957.4,472.9C958.6,471.9 959.8,470.9 960.8,469.8C969.2,461.3 973,448.6 972.1,436.4C971.7,430.3 970.1,424.3 967.5,418.9C964.9,413.5 961.1,408.9 956.6,405.4C956.3,405.2 956,405 955.7,404.7L954.8,404.1L952.9,402.9L950.9,401.8L949.9,401.2C949.6,401 949.2,400.9 948.9,400.7L946.8,399.7C946.1,399.4 945.4,399.1 944.6,398.8C943.2,398.2 941.6,397.7 940.1,397.2C934,395.2 927.4,393.9 920.6,392.6C913.8,391.3 906.7,390 899.5,388.2L896.8,387.5L894,386.7C892.1,386.1 890.2,385.4 888.4,384.6C884.8,383.1 881.3,381.2 877.9,379.1C871.3,374.8 865.2,369.5 860.4,362.7C858,359.3 856,355.4 854.7,351.2C854,349.1 853.6,346.8 853.3,344.6C853.1,342.3 853,340 853.3,337.7C853.8,333.1 855.3,328.7 857.5,324.8C859.7,320.8 862.7,317.4 865.9,314.7C869.1,311.9 872.6,309.8 876.1,307.9C879.6,306.1 883.1,304.6 886.6,303.3C890.1,302 893.6,300.9 897,299.8L901.9,298.3C903.5,297.8 905.1,297.3 906.7,296.7C913.1,294.5 919.3,292 925.3,289.1C931.3,286.2 937.1,282.9 942.4,279.1C947.8,275.3 952.6,271 956.7,266.2C960.7,261.3 963.8,255.9 965.5,250.1C966.3,247.2 966.8,244.1 967,241.1L967.1,238.8L967,236.4C966.9,235.6 967,234.8 966.9,234L966.6,231.6L966.5,230.4L966.3,229.2L965.8,226.9C965.6,226.1 965.4,225.4 965.2,224.6C965,223.9 964.8,223.1 964.5,222.4C963.9,220.9 963.4,219.4 962.6,218.1C962.2,217.4 961.9,216.7 961.5,216L960.3,214C959.9,213.3 959.4,212.7 959,212C958.5,211.4 958.1,210.7 957.6,210.1C956.5,208.9 955.6,207.6 954.4,206.5C952.2,204.1 949.6,202.1 947,200C941.7,196.1 935.7,192.8 929.4,190.1C923.1,187.4 916.6,185.2 909.9,183.3C903.2,181.4 896.4,179.8 889.6,178.4C883.1,177 876.2,175.8 869.3,174.5Z" style="fill:rgb(107,65,29);fill-rule:nonzero;"/>
            </g>
        </g>
    </g>
</svg>
