<?xml version="1.0" encoding="UTF-8" standalone="no"?>
<!DOCTYPE svg PUBLIC "-//W3C//DTD SVG 1.1//EN" "http://www.w3.org/Graphics/SVG/1.1/DTD/svg11.dtd">
<svg width="100%" height="100%" viewBox="0 0 4000 4000" version="1.1" xmlns="http://www.w3.org/2000/svg" xmlns:xlink="http://www.w3.org/1999/xlink" xml:space="preserve" xmlns:serif="http://www.serif.com/" style="fill-rule:evenodd;clip-rule:evenodd;stroke-linejoin:round;stroke-miterlimit:2;">
    <g id="layer1" transform="matrix(5.85264,0,0,5.85264,-184.125,-511.197)">
        <path id="path3971" d="M215.552,334.288C175.313,376.109 189.322,454.941 246.849,510.364C304.375,565.787 383.63,576.808 423.869,534.987C464.109,493.166 450.1,414.334 392.573,358.911C335.046,303.488 255.791,292.466 215.552,334.288Z" style="fill:rgb(82,50,22);fill-rule:nonzero;"/>
        <path id="path3193" d="M218.015,344.39C180.462,383.394 192.793,456.2 245.562,507.006C298.332,557.813 371.552,567.377 409.105,528.373C446.658,489.37 434.328,416.564 381.558,365.757C328.788,314.95 255.568,305.387 218.015,344.39Z" style="fill:rgb(70,43,19);fill-rule:nonzero;"/>
        <path id="path3969" d="M223.307,349.486C329.247,342.4 382.902,489.691 403.795,523.26C350.544,506.182 298.747,350.515 223.307,349.486Z" style="fill:rgb(44,27,12);fill-rule:nonzero;"/>
        <path id="path3963" d="M223.307,349.486C304.003,378.091 318.843,498.487 403.795,523.26C320.369,536.069 281.558,405.46 223.307,349.486Z" style="fill:rgb(126,77,34);fill-rule:nonzero;"/>
        <path id="path3808-6" d="M211.146,337.777C170.893,379.584 184.11,457.624 240.673,512.084C297.237,566.544 375.721,576.795 415.974,534.987C456.227,493.179 443.01,415.139 386.447,360.68C329.883,306.22 251.399,295.969 211.146,337.777ZM223.307,349.486C313.474,362.638 336.29,476.056 403.795,523.26C328.386,525.761 292.079,391.934 223.307,349.486Z" style="fill:rgb(107,65,29);fill-rule:nonzero;"/>
        <path id="path3965" d="M200.966,368.399C230.583,457.859 291.15,555.951 404.84,543.361C292.802,591.647 168.721,467.161 200.966,368.399Z" style="fill:rgb(131,75,29);fill-rule:nonzero;"/>
        <path id="path3967" d="M432.726,498.263C449.436,424.571 379.367,334.777 304.62,319.313C382.85,357.679 437.479,444.066 432.726,498.263Z" style="fill:rgb(84,54,29);fill-rule:nonzero;"/>
        <path id="path3973" d="M564.469,523.836C526.88,503.089 473.23,528.194 444.641,579.914C416.051,631.634 423.351,690.378 460.94,711.125C498.529,731.871 552.179,706.767 580.769,655.047C609.358,603.327 602.059,544.583 564.469,523.836Z" style="fill:rgb(82,50,22);fill-rule:nonzero;"/>
        <path id="path3975" d="M557.722,527.531C522.66,508.164 472.995,530.915 446.793,578.352C420.591,625.788 427.777,679.942 462.839,699.308C497.901,718.675 547.565,695.923 573.767,648.487C599.969,601.051 592.783,546.897 557.722,527.531Z" style="fill:rgb(70,43,19);fill-rule:nonzero;"/>
        <path id="path3977" d="M555.094,532.288C580.442,606.634 485.463,673.178 465.476,694.534C467.483,653.212 568.803,586.393 555.094,532.288Z" style="fill:rgb(44,27,12);fill-rule:nonzero;"/>
        <path id="path3979" d="M555.094,532.288C550.104,595.429 466.912,629.086 465.476,694.534C440.349,637.372 526.249,584.631 555.094,532.288Z" style="fill:rgb(126,77,34);fill-rule:nonzero;"/>
        <path id="path3981" d="M561.133,521.356C523.55,500.597 470.315,524.984 442.229,575.831C414.143,626.677 421.846,684.724 459.428,705.483C497.011,726.242 550.246,701.855 578.332,651.008C606.417,600.161 598.715,542.115 561.133,521.356ZM555.094,532.288C562.96,599.238 486.282,637.258 465.476,694.534C449.25,641.128 537.929,589.559 555.094,532.288Z" style="fill:rgb(107,65,29);fill-rule:nonzero;"/>
        <path id="path3983" d="M537.302,519.945C479.045,558.237 420.547,620.299 451.312,699.13C395.355,628.315 460.554,515.813 537.302,519.945Z" style="fill:rgb(131,75,29);fill-rule:nonzero;"/>
        <path id="path3985" d="M488.878,710.422C544.737,708.253 595.486,640.99 592.224,584.615C579.787,647.864 528.516,703.441 488.878,710.422Z" style="fill:rgb(84,54,29);fill-rule:nonzero;"/>
        <path id="path3973-6" d="M162.511,563.749C186.181,540.975 230.798,548.903 262.165,581.462C293.533,614.02 299.771,658.876 276.101,681.651C252.432,704.425 207.815,696.496 176.447,663.938C145.079,631.379 138.842,586.523 162.511,563.749Z" style="fill:rgb(82,50,22);fill-rule:nonzero;"/>
        <path id="path3975-0" d="M168.229,565.143C190.304,543.889 231.51,550.868 260.265,580.734C289.021,610.6 294.433,652.04 272.358,673.294C250.283,694.548 209.077,687.57 180.322,657.704C151.567,627.837 146.154,586.397 168.229,565.143Z" style="fill:rgb(70,43,19);fill-rule:nonzero;"/>
        <path id="path3977-6" d="M171.113,568.138C167.103,628.097 250.465,658.464 269.465,670.289C259.799,640.15 171.695,610.835 171.113,568.138Z" style="fill:rgb(44,27,12);fill-rule:nonzero;"/>
        <path id="path3979-2" d="M171.113,568.138C187.303,613.809 255.444,622.209 269.465,670.289C276.714,623.072 202.793,601.106 171.113,568.138Z" style="fill:rgb(126,77,34);fill-rule:nonzero;"/>
        <path id="path3981-6" d="M164.486,561.255C188.148,538.473 232.316,545.954 263.139,577.967C293.962,609.98 299.763,654.4 276.102,677.182C252.439,699.964 208.271,692.484 177.449,660.47C146.626,628.457 140.824,584.037 164.486,561.255ZM171.113,568.138C178.557,619.17 242.748,632.083 269.465,670.289C270.88,627.61 195.137,607.061 171.113,568.138Z" style="fill:rgb(107,65,29);fill-rule:nonzero;"/>
        <path id="path3983-1" d="M181.817,555.494C232.449,572.256 287.967,606.535 280.841,670.881C308.17,607.47 237.714,537.244 181.817,555.494Z" style="fill:rgb(131,75,29);fill-rule:nonzero;"/>
        <path id="path3985-8" d="M255.317,686.663C213.609,696.121 162.788,656.464 154.036,614.159C175.75,658.435 224.643,689.353 255.317,686.663Z" style="fill:rgb(84,54,29);fill-rule:nonzero;"/>
    </g>
</svg>
