<?xml version="1.0" encoding="UTF-8" standalone="no"?>
<!DOCTYPE svg PUBLIC "-//W3C//DTD SVG 1.1//EN" "http://www.w3.org/Graphics/SVG/1.1/DTD/svg11.dtd">
<svg width="100%" height="100%" viewBox="0 0 4000 4000" version="1.1" xmlns="http://www.w3.org/2000/svg" xmlns:xlink="http://www.w3.org/1999/xlink" xml:space="preserve" xmlns:serif="http://www.serif.com/" style="fill-rule:evenodd;clip-rule:evenodd;">
    <g transform="matrix(4.8814,0,0,4.8814,568.273,300.541)">
        <path d="M78.456,544.431C14.299,563.467 -16.263,615.203 72.043,644.234C215.841,691.521 345.166,687.939 474.319,660.844C560.95,642.674 593.707,612.748 570.396,576.119C614.506,619.305 561.123,652.582 483.822,673.092C357.183,706.687 172.453,701.69 58.38,658.446C-36.397,622.511 -4.853,566.616 78.427,544.431L78.456,544.431ZM359.263,44.836C325.119,63.468 326.275,80.742 333.323,93.539C334.074,76.9 336.356,70.516 368.42,50.96C399.127,32.27 387.601,12.57 378.675,1.246C383.268,18.809 386.186,30.133 359.234,44.836L359.263,44.836ZM378.213,191.407C329.25,218.127 305.245,240.283 296.001,263.999C267.779,260.533 229.764,263.624 189.265,275.872C158.819,285.086 119.129,309.756 126.755,326.741C83.107,431.831 119.331,554.397 227.425,595.127C169.074,548.59 101.97,500.927 134.554,345.199C181.61,379.286 231.873,380.008 283.262,380.817C339.996,381.712 401.9,376.108 444.797,350.197C508.318,453.553 411.259,558.094 323.386,603.562C389.536,575.917 453.809,552.952 479.923,465.252C494.51,416.232 489.022,366.922 459.153,310.073C458.691,328.705 455.196,334.049 423.565,352.248C466.895,322.986 396.094,290.662 311.571,287.426C314.056,282.284 317.262,277.229 321.451,272.059C339.794,272.781 358.512,273.994 377.231,275.236C363.278,268.794 342.538,266.252 324.397,265.01C338.783,248.805 363.134,234.621 404.875,209.23C494.135,154.894 460.626,97.699 434.657,64.768C447.974,115.782 456.467,148.713 378.184,191.407L378.213,191.407ZM294.615,271.452C292.853,276.825 291.842,282.082 291.437,287.224C248.512,288.004 204.142,296.612 170.72,317.093C203.449,303.92 248.483,296.41 291.293,295.601C291.957,309.091 296.608,321.599 302.848,332.923C303.512,318.422 304.581,306.607 308.249,295.63C343.231,296.439 375.324,301.985 396.094,312.875C439.452,335.609 417.296,355.339 382.43,363.774C355.941,367.875 322.346,369.811 281.154,369.233C146.917,367.327 128.603,324.228 150.239,306.954C186.405,278.125 237.939,271.163 294.586,271.481L294.615,271.452ZM367.987,102.783C309.983,134.414 311.918,163.762 323.935,185.514C325.235,157.263 329.077,146.373 383.586,113.211C435.784,81.436 416.199,48.014 401.004,28.746C408.804,58.557 413.772,77.825 367.987,102.783ZM453.52,556.332C496.099,519.733 577.704,456.644 506.296,404.85C475.503,382.521 504.996,346.557 542.722,367.384C581.864,388.963 598.445,428.624 559.621,477.703C529.232,516.093 489.657,536.833 453.52,556.361L453.52,556.332Z" style="fill:rgb(107,65,29);stroke:rgb(167,95,74);stroke-width:0.57px;"/>
    </g>
</svg>
