<?xml version="1.0" encoding="UTF-8" standalone="no"?>
<!DOCTYPE svg PUBLIC "-//W3C//DTD SVG 1.1//EN" "http://www.w3.org/Graphics/SVG/1.1/DTD/svg11.dtd">
<svg width="100%" height="100%" viewBox="0 0 4000 4000" version="1.1" xmlns="http://www.w3.org/2000/svg" xmlns:xlink="http://www.w3.org/1999/xlink" xml:space="preserve" xmlns:serif="http://www.serif.com/" style="fill-rule:evenodd;clip-rule:evenodd;stroke-linejoin:round;stroke-miterlimit:2;">
    <g transform="matrix(77.587,0,0,77.587,225.098,1486.16)">
        <path d="M44.95,14.05L27.9,27C27.3,27.4 26.55,27.634 25.65,27.7C24.683,27.733 23.733,27.55 22.8,27.15L0.85,17.45C0.317,17.083 0.033,16.55 0,15.85C-0.033,15.15 0.183,14.717 0.65,14.55C0.717,14.484 0.983,14.5 1.45,14.6C1.95,14.7 2.25,14.717 2.35,14.65L16.2,6.45C17.933,5.483 19.133,4.883 19.8,4.65C20.667,4.317 21.4,4.25 22,4.45L44.75,10.8C45.384,11.067 45.717,11.584 45.75,12.35C45.783,13.083 45.517,13.65 44.95,14.05Z" style="fill:white;"/>
        <path d="M44.75,10.8C45.384,11.067 45.717,11.584 45.75,12.35C45.783,13.083 45.517,13.65 44.95,14.05L27.9,27C27.267,27.4 26.483,27.634 25.55,27.7C25.65,27.266 25.617,26.783 25.45,26.25C25.317,25.717 25.15,25.366 24.95,25.2C33.183,14.766 37.45,9.433 37.75,9.2C37.884,9.133 38.25,9.15 38.85,9.25L44.75,10.8Z" style="fill:rgb(212,213,214);"/>
        <path d="M44.65,13.1L27.7,25.1C27.133,25.5 26.416,25.75 25.55,25.85C24.717,25.951 23.984,25.867 23.35,25.6L1.1,16.3C0.133,15.867 -0.15,15.283 0.25,14.55C0.417,14.25 0.65,14 0.95,13.8L16.25,5.2C17.95,4.266 19.15,3.666 19.85,3.4C20.717,3.067 21.45,3 22.05,3.2L44.5,10.65C45.134,10.917 45.467,11.3 45.5,11.8C45.5,12.267 45.217,12.7 44.65,13.1Z" style="fill:url(#_Linear1);"/>
        <path d="M3.1,15.35C3.767,16.05 5.6,17.2 8.6,18.8C11.3,20.267 14.05,21.617 16.85,22.85L1.1,16.3C0.133,15.867 -0.15,15.283 0.25,14.55C0.417,14.25 0.65,14 0.95,13.8L14.15,6.4C8.95,9.667 6.217,11.4 5.95,11.6C3.417,13.4 2.467,14.65 3.1,15.35Z" style="fill:rgb(201,201,201);"/>
        <path d="M44.5,10.65C45.134,10.917 45.467,11.3 45.5,11.8C45.5,12.267 45.217,12.7 44.65,13.1L27.7,25.1C27.133,25.5 26.416,25.75 25.55,25.85C24.717,25.951 23.984,25.867 23.35,25.6L20.65,24.451C21.683,24.617 22.517,24.684 23.15,24.651C24.017,24.584 24.983,24.334 26.05,23.901C28.383,22.967 31.517,21.217 35.45,18.651C38.983,16.318 41.45,14.518 42.849,13.251C43.849,12.351 44.4,11.768 44.499,11.501C44.666,11.134 44.416,10.768 43.749,10.401L44.5,10.65Z" style="fill:white;"/>
        <g id="d" transform="matrix(1,0,0,-1,6.6499,22.85)">
            <g opacity="0.23">
                <g transform="matrix(1,0,0,1,-0.733776,12.9236)">
                    <path d="M30.95,-5.05C31.317,-5.283 31.533,-5.517 31.6,-5.75C31.633,-5.883 31.633,-6.083 31.6,-6.35C31.567,-6.517 31.483,-6.633 31.35,-6.7C31.083,-6.8 30.8,-6.9 30.5,-7C30.167,-7.133 30.017,-7.233 30.05,-7.3C30.117,-7.5 30.15,-7.617 30.15,-7.65C30.117,-7.75 30.017,-7.834 29.85,-7.9C29.65,-7.967 29.533,-8.033 29.5,-8.1C29.4,-8.666 29.3,-9.017 29.2,-9.15C28.9,-9.65 27.717,-10.517 25.65,-11.75C24.783,-12.283 24.183,-12.617 23.85,-12.75C23.65,-12.817 23.45,-12.817 23.25,-12.75C22.95,-12.717 22.65,-12.667 22.35,-12.6C22.15,-12.567 21.883,-12.383 21.55,-12.05L21.1,-11.55L21.3,-11C21.4,-10.667 21.533,-9.667 21.7,-8C21.867,-6.2 21.9,-5.2 21.8,-5C21.467,-4.633 21.25,-4.367 21.15,-4.2C20.683,-3.633 20.25,-3.317 19.85,-3.25C19.05,-3.083 18.433,-2.9 18,-2.7C17.667,-2.633 17.283,-2.533 16.85,-2.4C16.583,-2.3 16.317,-2.35 16.05,-2.55C15.817,-2.783 15.633,-2.933 15.5,-3C15.133,-3.133 14.717,-2.933 14.25,-2.4C14.117,-2.167 13.983,-2.05 13.85,-2.05C13.45,-2.117 13.183,-2.084 13.05,-1.95C12.983,-1.883 12.633,-1.833 12,-1.8C11.867,-1.8 11.467,-1.85 10.8,-1.95C10.234,-2.05 9.8,-2.233 9.5,-2.5C8.967,-2.867 8.267,-3.083 7.4,-3.15C7.2,-3.15 6.717,-3.267 5.95,-3.5C4.95,-3.833 4.35,-4 4.15,-4C3.95,-4 3.683,-3.833 3.35,-3.5C3.183,-3.333 2.783,-3.283 2.15,-3.35C1.75,-3.383 1.533,-3.517 1.5,-3.75C1.3,-3.683 1.1,-3.55 0.9,-3.35C0.667,-3.15 0.367,-2.817 -0,-2.35L0.35,-2.25L18.25,0C26.117,-3.067 30.35,-4.75 30.95,-5.05Z"/>
                </g>
            </g>
        </g>
        <path d="M35.45,8.35L36.5,9.4L36.95,9.65C37.283,9.883 37.483,10.15 37.55,10.45C37.616,10.717 37.651,10.967 37.651,11.2C37.617,11.333 37.634,11.416 37.701,11.45C38.168,11.783 38.434,12.283 38.501,12.95C38.567,13.483 38.351,13.833 37.851,14L37.501,14.3L37.801,14.5C38.034,14.667 38.135,14.85 38.101,15.05C37.968,15.783 37.584,16.183 36.952,16.25C36.652,16.283 36.502,16.433 36.502,16.7C36.502,17 36.469,17.15 36.402,17.15C35.902,17.117 35.485,17.217 35.152,17.45C34.885,17.717 34.685,17.9 34.551,18C34.318,18.233 33.985,18.433 33.551,18.6C33.218,18.767 33.051,18.983 33.051,19.25C33.051,19.55 32.902,19.817 32.601,20.05C32.268,20.317 32.301,20.517 32.702,20.65C33.068,20.783 33.118,20.9 32.851,21C32.485,21.167 32.018,21.267 31.452,21.3C30.818,21.334 30.469,21.367 30.402,21.4L29.902,21.55C29.768,21.55 29.585,21.5 29.351,21.4C29.152,21.334 29.001,21.334 28.901,21.4C28.801,21.467 28.718,21.5 28.651,21.5C28.618,21.5 28.351,21.317 27.851,20.95C27.651,20.817 27.601,20.516 27.701,20.05C27.734,19.917 27.684,19.783 27.551,19.65C27.351,19.517 27.235,19.4 27.201,19.3L27.151,18.7C27.518,18.433 27.718,18.217 27.751,18.05C27.751,17.417 27.834,17 28.001,16.8C28.201,16.567 28.484,16.084 28.851,15.35C29.184,14.583 29.401,13.967 29.501,13.5C29.601,13.133 28.834,12.667 27.201,12.1C25.468,11.633 24.517,11.367 24.351,11.3C24.151,11.234 24.018,11.283 23.951,11.45L23.9,11.7C23.267,11.9 22.883,12 22.75,12C22.683,12 22.633,12.067 22.6,12.2C22.533,12.333 22.433,12.4 22.3,12.4C22.267,12.4 22.133,12.433 21.9,12.5C21.767,12.5 21.65,12.467 21.55,12.4C21.45,12.334 21.25,12.267 20.95,12.2C20.683,12.166 20.5,12.1 20.4,12C20.334,11.933 20.3,11.817 20.3,11.65C20.267,11.55 20.133,11.483 19.9,11.45L18.45,11.4C18.117,11.3 17.817,11.35 17.55,11.55C17.217,11.817 16.917,11.867 16.65,11.7C16.483,11.6 16.183,11.733 15.75,12.1C15.617,12.233 15.483,12.317 15.35,12.35C15.217,12.383 15.133,12.4 15.1,12.4L14.35,12.6C14.217,12.666 13.916,12.617 13.45,12.45C13.35,12.416 13.25,12.45 13.15,12.55C13.084,12.617 13.033,12.667 13,12.7C12.933,12.833 12.783,12.883 12.55,12.85C12.383,12.817 12.234,12.85 12.1,12.95C12.033,12.983 11.933,13.067 11.8,13.2C11.667,13.3 11.433,13.4 11.1,13.5C10.7,13.6 10.45,13.6 10.35,13.5L9.65,13.2C9.35,13.333 8.917,13.35 8.35,13.25L7.6,13C7.333,13.033 7.033,12.883 6.7,12.55C6.4,12.183 6.6,12 7.3,12C16.167,7.767 21.867,5.483 24.4,5.15C26,4.95 27.867,5.167 30,5.8C31.1,6.1 32.15,6.467 33.15,6.9C34.116,7.267 34.683,7.467 34.849,7.5C35.017,7.567 35.217,7.85 35.45,8.35Z" style="fill:rgb(201,149,44);"/>
        <g>
            <path d="M16.6,11.35C16.733,11.416 16.916,11.467 17.15,11.5C17.359,11.552 17.484,11.577 17.525,11.575C17.203,11.822 16.912,11.864 16.65,11.7C16.483,11.6 16.183,11.733 15.75,12.1C15.617,12.233 15.483,12.317 15.35,12.35C15.217,12.383 15.133,12.4 15.1,12.4L14.35,12.6C14.25,12.633 14.133,12.633 14,12.6C14.367,12.5 14.567,12.433 14.6,12.4L14.85,12.25C15.15,12.35 15.55,12.183 16.05,11.75C16.183,11.617 16.283,11.483 16.35,11.35C16.383,11.317 16.467,11.317 16.6,11.35Z" style="fill:rgb(184,131,24);"/>
            <path d="M7.6,13L7.25,12.9C7.517,12.767 7.65,12.717 7.65,12.75L7.8,13.1L7.6,13Z" style="fill:rgb(184,131,24);"/>
            <path d="M20.3,10.15C20.834,10.117 21.2,10.167 21.4,10.3C22,10.633 22.117,10.817 21.75,10.85C21.55,10.883 21.383,11 21.25,11.2C21.117,11.367 21.083,11.5 21.15,11.6C21.817,11.9 22.15,11.967 22.15,11.8C22.117,11.633 22.1,11.517 22.1,11.45C22.1,11.317 22.166,11.317 22.3,11.45C22.5,11.65 22.75,11.683 23.05,11.55C22.85,11.417 22.7,11.283 22.6,11.15C22.4,10.95 22.4,10.817 22.6,10.75C23.333,10.483 23.817,10.483 24.05,10.75C24.15,10.883 24.533,11.15 25.2,11.55L24.35,11.3C24.15,11.234 24.017,11.283 23.95,11.45L23.9,11.7C23.267,11.9 22.883,12 22.75,12C22.683,12 22.633,12.067 22.6,12.2C22.533,12.333 22.433,12.4 22.3,12.4C22.267,12.4 22.133,12.433 21.9,12.5C21.767,12.5 21.65,12.467 21.55,12.4C21.45,12.334 21.25,12.267 20.95,12.2C20.683,12.166 20.5,12.1 20.4,12C20.334,11.933 20.3,11.817 20.3,11.65C20.267,11.55 20.133,11.483 19.9,11.45L18.45,11.4C18.167,11.315 17.908,11.34 17.675,11.475C17.777,11.398 17.851,11.323 17.9,11.25C17.967,11.15 18.183,11.117 18.55,11.15C18.584,11.15 18.65,11.167 18.75,11.2C18.85,11.2 18.933,11.166 19,11.1C19.033,11.033 19.017,10.95 18.95,10.85C18.85,10.783 18.783,10.717 18.75,10.65C18.55,10.55 18.433,10.467 18.4,10.4C18.3,10.3 18.45,10.25 18.85,10.25C19.183,10.25 19.667,10.217 20.3,10.15Z" style="fill:rgb(184,131,24);"/>
            <path d="M29.35,19.3C29.417,19.3 29.701,19.15 30.201,18.85C30.767,18.617 31.267,18.617 31.701,18.85C32.234,19.083 33.168,18.817 34.501,18.05C34.168,18.283 33.851,18.467 33.551,18.6C33.218,18.767 33.051,18.983 33.051,19.25C33.051,19.55 32.902,19.817 32.601,20.05C32.268,20.317 32.301,20.517 32.702,20.65C33.068,20.783 33.118,20.9 32.851,21C32.485,21.167 32.018,21.267 31.452,21.3C30.818,21.334 30.469,21.367 30.402,21.4L29.902,21.55C29.768,21.55 29.585,21.5 29.351,21.4C29.152,21.334 29.001,21.334 28.901,21.4C28.801,21.467 28.718,21.5 28.651,21.5C28.618,21.5 28.351,21.317 27.851,20.95C27.651,20.817 27.601,20.516 27.701,20.05C27.734,19.917 27.684,19.783 27.551,19.65C27.351,19.517 27.235,19.4 27.201,19.3L27.151,18.7L27.551,18.35C27.585,18.617 27.651,18.8 27.751,18.9L27.8,19L28.1,19.5C28.133,19.6 28.2,19.817 28.3,20.15C28.334,20.283 28.417,20.334 28.55,20.3C28.717,20.267 28.8,20.183 28.8,20.05C28.867,19.817 28.9,19.683 28.9,19.65C29,19.417 29.15,19.3 29.35,19.3Z" style="fill:rgb(184,131,24);"/>
            <path d="M9.65,13.2C9.35,13.333 8.917,13.35 8.35,13.25L8,13.2C8.4,12.9 8.633,12.783 8.7,12.85C8.8,13.15 8.95,13.2 9.15,13C9.183,12.967 9.267,12.833 9.4,12.6C9.467,12.5 9.55,12.5 9.65,12.6C9.883,12.8 10.033,12.9 10.1,12.9C10.133,12.9 10.233,12.8 10.4,12.6C10.5,12.433 10.584,12.433 10.65,12.6C10.717,12.767 10.783,12.916 10.85,13.05C10.883,13.15 10.983,13.15 11.15,13.05C11.383,12.917 11.517,12.783 11.55,12.65L12.05,12.65L12.05,12.55C12.117,12.517 12.217,12.55 12.35,12.65L12.65,12.85L12.55,12.85C12.383,12.817 12.234,12.85 12.1,12.95C12.033,12.983 11.933,13.067 11.8,13.2C11.667,13.3 11.433,13.4 11.1,13.5C10.7,13.6 10.45,13.6 10.35,13.5L9.65,13.2Z" style="fill:rgb(184,131,24);"/>
            <path d="M37.7,12.05L37.7,11.6L37.75,11.5C38.184,11.8 38.434,12.283 38.5,12.95C38.566,13.483 38.35,13.833 37.85,14L37.5,14.3L37.8,14.5C38.033,14.667 38.134,14.85 38.1,15.05C37.967,15.783 37.583,16.183 36.951,16.25C36.817,16.25 36.701,16.3 36.6,16.4L37.25,15.7L37.15,15.2C37.15,14.733 37.2,14.433 37.299,14.3L37.599,14.15C37.7,14.084 37.749,13.967 37.749,13.8C37.749,13.7 37.683,13.567 37.549,13.4C37.449,13.267 37.449,13.05 37.549,12.75C37.684,12.483 37.733,12.25 37.7,12.05Z" style="fill:rgb(184,131,24);"/>
            <path d="M36.4,17.15L35.85,17.2L36.35,16.75L36.576,16.45C36.531,16.523 36.523,16.656 36.551,16.85C36.55,17.017 36.5,17.117 36.4,17.15Z" style="fill:rgb(184,131,24);"/>
        </g>
        <path d="M31.2,3.05C32.4,3.35 33.217,3.783 33.65,4.35L34.85,7C35.117,7.567 35.634,8.533 36.401,9.9C36.934,10.8 37.284,11.65 37.451,12.45C37.651,13.35 37.517,14.3 37.051,15.3C37.018,15.367 36.534,16.234 35.601,17.9C35.535,18 35.301,18.533 34.902,19.5C34.768,19.8 34.419,20.133 33.851,20.5C32.618,21.3 31.285,21.4 29.851,20.8C29.385,20.633 28.968,20.117 28.601,19.25L28.251,17.95C28.551,16.217 28.568,15.083 28.301,14.55C28.134,14.217 28.051,14.033 28.051,14C27.918,13.867 27.701,13.6 27.401,13.2C27.101,12.766 26.568,12.467 25.801,12.3C24.701,12.1 23.901,11.867 23.401,11.6C22.201,10.967 21.501,10.617 21.301,10.55C20.668,10.383 19.668,10.383 18.301,10.55C17.501,10.65 16.751,10.95 16.051,11.45C15.551,11.817 14.968,11.916 14.301,11.75C13.534,11.55 12.718,11.533 11.851,11.7C10.118,12.033 9.167,12.2 9.001,12.2C8.001,12.3 7.434,12.283 7.301,12.15C7.301,11.883 7.168,11.65 6.901,11.45C6.534,11.217 6.318,11.05 6.251,10.95C6.184,10.75 6.101,10.55 6.001,10.35C5.867,10.05 5.933,9.5 6.2,8.7C6.467,7.933 6.8,7.333 7.2,6.9C7.5,6.6 8,6.333 8.7,6.1C9.533,5.8 10,5.617 10.1,5.55C10.6,5.317 11.517,4.65 12.85,3.55C13.617,3.017 15.467,2.133 18.4,0.9C19.367,0.5 19.967,0.3 20.2,0.3C21.1,0.4 21.7,0.45 22,0.45C22.667,0.416 23.35,0.317 24.05,0.15C24.417,0.084 24.85,0.117 25.35,0.25C25.75,0.35 26.567,0.767 27.8,1.5C29.033,2.267 30.167,2.783 31.2,3.05Z" style="fill:rgb(235,176,56);"/>
        <g>
            <path d="M33.2,3.9C33.5,4.133 33.783,4.533 34.05,5.1C34.184,5.433 34.45,6.067 34.85,7C35.117,7.567 35.634,8.533 36.401,9.9C36.934,10.8 37.284,11.65 37.451,12.45C37.651,13.35 37.517,14.3 37.051,15.3C37.018,15.367 36.534,16.234 35.601,17.9C35.535,18 35.301,18.533 34.902,19.5C34.768,19.8 34.419,20.133 33.851,20.5C32.618,21.3 31.285,21.4 29.851,20.8C29.452,20.667 29.101,20.283 28.801,19.65L28.901,19.65C28.968,19.617 29.051,19.483 29.151,19.25C29.284,19.083 29.434,19.1 29.6,19.3C29.767,19.467 29.901,19.617 30,19.75C30.033,19.783 30.2,19.8 30.5,19.8C31.233,19.8 31.634,19.667 31.7,19.4L31.7,19C31.667,18.8 31.7,18.65 31.8,18.55C32,18.417 32.2,18.3 32.401,18.2C32.3,18.2 32.284,17.916 32.35,17.35C32.417,16.75 32.583,16.4 32.85,16.3C32.984,16.267 33.417,16.133 34.151,15.9C34.717,15.733 35.017,15.617 35.05,15.55C35.184,15.317 35.267,15.117 35.3,14.95C35.434,14.65 35.467,14.367 35.401,14.1C35.067,13.1 34.784,12.467 34.55,12.2C34.35,11.933 34.25,11.783 34.25,11.75C34.184,11.617 34.167,11.433 34.2,11.2C34.233,10.967 34.3,10.75 34.4,10.55C34.466,10.484 34.516,10.417 34.549,10.35C34.516,10.05 34.4,9.75 34.199,9.45C33.633,8.717 33.383,8.317 33.449,8.25L34.049,7.55L34.199,6.95C33.999,6.683 33.883,6.483 33.848,6.35L33.098,4.85L33.348,4.35L33.2,3.9Z" style="fill:rgb(212,160,53);"/>
            <path d="M21.05,5.05C21.117,4.917 21.217,4.967 21.35,5.2C21.55,5.633 21.717,5.933 21.85,6.1C22.283,6.6 22.7,6.817 23.1,6.75C23.133,6.75 23.3,6.617 23.6,6.35C23.8,6.15 23.967,6.117 24.1,6.25C24.133,6.283 24.467,6.45 25.1,6.75C25.567,7.017 25.817,7.233 25.85,7.4C25.95,8.267 26.083,8.783 26.25,8.95C26.35,9.017 26.6,9.067 27,9.1C27.267,9.133 27.4,9.283 27.4,9.55C27.4,9.783 27.35,10.133 27.25,10.6C27.217,11 27.333,11.3 27.6,11.5C27.867,11.767 28.15,12.167 28.45,12.7C28.683,13.2 28.8,13.533 28.8,13.7C28.8,14.067 28.717,14.4 28.55,14.7L28.45,15.1L28.3,14.55C28.133,14.217 28.05,14.033 28.05,14C27.917,13.867 27.7,13.6 27.4,13.2C27.1,12.766 26.567,12.467 25.8,12.3C24.7,12.1 23.9,11.867 23.4,11.6C22.2,10.967 21.5,10.617 21.3,10.55C20.667,10.383 19.667,10.383 18.3,10.55C17.5,10.65 16.75,10.95 16.05,11.45C15.55,11.817 14.967,11.916 14.3,11.75C13.533,11.55 12.717,11.533 11.85,11.7C10.117,12.033 9.166,12.2 9,12.2C8,12.3 7.433,12.283 7.3,12.15C7.3,11.883 7.167,11.65 6.9,11.45C6.533,11.217 6.317,11.05 6.25,10.95C6.517,11.117 6.783,11.217 7.05,11.25C7.35,11.283 7.55,11.25 7.65,11.15C7.683,11.117 7.733,10.967 7.8,10.7C7.8,10.6 7.933,10.583 8.2,10.65L9.3,10.8C9.734,10.867 10.017,10.767 10.15,10.5C10.25,10.233 10.35,10.05 10.45,9.95C10.583,9.783 10.833,9.75 11.2,9.85L12.8,10.3C12.933,10.334 13.15,10.383 13.45,10.45C13.75,10.483 14,10.45 14.2,10.35C14.367,10.283 14.65,10.217 15.05,10.15C15.45,10.084 15.683,10.033 15.75,10C15.817,9.967 15.917,9.933 16.05,9.9C16.217,9.9 16.383,9.85 16.55,9.75C16.883,9.583 17.267,9.283 17.7,8.85C18,8.483 18.283,8.3 18.55,8.3C18.717,8.3 19.017,8.367 19.45,8.5C19.817,8.567 20.016,8.483 20.05,8.25L20.05,7.55C20.05,7.283 20.117,6.984 20.25,6.65L21.05,5.05Z" style="fill:rgb(212,159,51);"/>
        </g>
        <path d="M23.35,9.1L23.7,9.05C23.967,9.05 24.2,9.167 24.4,9.4C24.6,9.7 24.733,9.883 24.8,9.95C24.9,9.983 25.117,10 25.45,10C26.283,10 26.7,10.2 26.7,10.6C26.7,10.8 26.867,11.067 27.2,11.4C27.567,11.767 27.766,12.05 27.8,12.25C27.9,12.717 28.033,13.15 28.2,13.55C28.833,13.85 28.85,14.15 28.25,14.45C28.15,14.183 28.083,14.033 28.05,14C27.817,13.733 27.6,13.467 27.4,13.2C27.1,12.766 26.567,12.467 25.8,12.3C24.7,12.1 23.9,11.867 23.4,11.6C22.2,10.967 21.5,10.617 21.3,10.55C20.667,10.383 19.667,10.383 18.3,10.55C17.5,10.65 16.75,10.95 16.05,11.45C15.55,11.817 14.967,11.916 14.3,11.75C13.533,11.55 12.717,11.533 11.85,11.7C10.117,12.033 9.166,12.2 9,12.2C8.2,12.3 7.683,12.317 7.45,12.25C7.35,12.217 7.266,12.083 7.2,11.85C7.733,11.95 8.483,11.883 9.45,11.65C9.983,11.55 10.5,11.483 11,11.45C11.367,11.416 11.567,11.383 11.6,11.35C11.7,11.25 11.95,11.2 12.35,11.2C13.95,11.2 14.833,11.133 15,11C15.133,10.867 15.433,10.7 15.9,10.5C16.767,10.167 17.35,10 17.65,10C18.517,10 19.05,9.917 19.25,9.75C19.683,9.383 20.117,9.233 20.55,9.3C20.75,9.367 20.95,9.367 21.15,9.3C21.35,9.234 21.433,9.133 21.4,9C21.367,8.867 21.4,8.733 21.5,8.6C21.567,8.467 21.633,8.4 21.7,8.4C21.9,8.4 22.166,8.533 22.5,8.8C22.7,8.933 22.983,9.033 23.35,9.1Z" style="fill:rgb(191,142,44);"/>
        <g>
            <path d="M9.725,6.25C9.694,6.331 9.669,6.448 9.65,6.6C9.617,6.933 9.584,7.133 9.55,7.2C9.484,7.367 9.334,7.367 9.1,7.2C8.967,7.067 8.783,7.15 8.55,7.45C8.317,7.783 8.15,7.933 8.05,7.9C8.017,7.9 7.967,7.75 7.9,7.45C7.867,7.35 7.75,7.367 7.55,7.5C7.45,7.567 7.35,7.633 7.25,7.7L7.3,7.2L7.75,6.65C8.083,6.483 8.4,6.383 8.7,6.35L9.5,6.3C9.596,6.288 9.671,6.271 9.725,6.25Z" style="fill:rgb(250,214,143);"/>
            <path d="M12.5,5C12.3,5.4 12.2,5.617 12.2,5.65C12.2,5.783 12.117,5.883 11.95,5.95C11.817,5.95 11.717,5.9 11.65,5.8C11.584,5.667 11.617,5.4 11.75,5C11.788,4.907 11.821,4.824 11.85,4.75C11.934,4.727 12.017,4.66 12.1,4.55L12.65,4.55L12.5,5ZM10.7,5.65C10.867,5.584 10.967,5.517 11,5.45C11.067,5.317 11.2,5.166 11.4,5C11.576,4.853 11.701,4.77 11.775,4.75C11.652,5.018 11.494,5.368 11.3,5.8C11.2,6.067 11.117,6.167 11.05,6.1C10.817,6.2 10.65,6.3 10.55,6.4C10.35,6.667 10.183,7.117 10.05,7.75L9.9,7.2L10.15,6.15C10.317,5.983 10.417,5.867 10.45,5.8C10.483,5.733 10.567,5.683 10.7,5.65Z" style="fill:rgb(250,214,143);"/>
            <path d="M18.25,2.7L18,2.95C17.567,3.15 17.317,3.333 17.25,3.5C17.183,3.6 17.133,3.817 17.1,4.15C17.033,4.45 16.916,4.667 16.75,4.8C16.25,4.734 15.917,4.75 15.75,4.85C15.45,5.083 15.2,5.133 15,5C14.867,4.933 14.7,4.917 14.5,4.95L14.3,5.05L14.05,5.35C13.717,5.75 13.5,6.05 13.4,6.25C13.334,6.383 13.283,6.417 13.25,6.35C13.217,6.25 13.183,6.166 13.15,6.1C13.084,6 13.05,5.867 13.05,5.7C13.017,5.5 13.033,5.367 13.1,5.3L13.2,4.35C13.266,4.017 13.5,3.767 13.9,3.6L14.4,3.4C14.5,3.367 14.55,3.4 14.55,3.5C14.484,3.7 14.467,3.833 14.5,3.9C14.567,4.1 14.733,3.967 15,3.5C15.3,3.133 15.5,2.983 15.6,3.05C15.733,3.15 16.017,3.084 16.45,2.85C16.717,2.683 16.933,2.483 17.1,2.25C17.267,2.117 17.433,2.067 17.6,2.1C17.666,2.133 17.817,2.183 18.05,2.25C18.217,2.283 18.3,2.333 18.3,2.4C18.3,2.467 18.283,2.567 18.25,2.7Z" style="fill:rgb(250,214,143);"/>
            <path d="M14.9,2.7C15.133,2.7 15.233,2.733 15.2,2.8L14.75,3.2C14.65,3.233 14.633,3.15 14.7,2.95C14.733,2.783 14.8,2.7 14.9,2.7Z" style="fill:rgb(250,214,143);"/>
            <path d="M23.7,0.7C24.166,0.533 24.483,0.516 24.65,0.65C24.717,0.683 24.7,0.717 24.6,0.75C24.467,0.85 24.367,0.933 24.3,1C24.167,1.133 24.1,1.517 24.1,2.15C24.067,2.45 23.867,2.483 23.5,2.25C23.467,1.95 23.367,1.75 23.2,1.65C23.1,1.584 22.817,1.65 22.35,1.85C21.883,2.05 21.633,2.15 21.6,2.15C21.467,2.15 21.3,2.25 21.1,2.45C21.033,2.55 20.933,2.567 20.8,2.5L20.65,2.35C20.517,2.083 20.4,1.983 20.3,2.05C19.933,2.317 19.7,2.4 19.6,2.3C19.433,2.133 19.4,1.883 19.5,1.55C19.567,1.25 19.867,1.05 20.4,0.95C20.5,0.916 20.9,0.95 21.6,1.05C21.833,1.117 22.2,1.067 22.7,0.9C23,0.9 23.333,0.833 23.7,0.7Z" style="fill:rgb(250,214,143);"/>
            <path d="M20.05,2.65C20.183,2.617 20.3,2.65 20.4,2.75C20.433,2.817 20.483,2.9 20.55,3C20.617,3.067 20.6,3.3 20.5,3.7C20.467,3.867 20.417,3.95 20.35,3.95C20.317,3.95 20.217,3.933 20.05,3.9C19.75,3.9 19.6,3.6 19.6,3C19.567,2.767 19.717,2.65 20.05,2.65Z" style="fill:rgb(250,214,143);"/>
            <path d="M22.7,2C22.833,2 22.916,2.083 22.95,2.25C22.983,2.417 22.967,2.55 22.9,2.65C22.9,2.683 22.783,2.733 22.55,2.8C22.417,2.867 22.283,2.767 22.15,2.5C22.017,2.167 22.2,2 22.7,2Z" style="fill:rgb(250,214,143);"/>
            <path d="M30.5,4.05C30.7,4.217 30.75,4.433 30.65,4.7C30.616,4.8 30.4,4.933 30,5.1L29.65,4.5C29.549,4.4 29.466,4.3 29.4,4.2C29.233,4.033 29.133,3.833 29.099,3.6C29.066,3.4 28.999,3.317 28.899,3.35C28.666,3.45 28.449,3.5 28.249,3.5C27.583,3.467 27.167,3.317 27,3.05L26.65,2.65L26.6,2.3C26.567,2.167 26.617,2.1 26.75,2.1C26.817,2.067 27.1,2.083 27.6,2.15C27.8,2.183 28.283,2.417 29.05,2.85C29.15,2.883 29.267,2.967 29.4,3.1C29.5,3.2 29.733,3.367 30.099,3.6C30.2,3.8 30.333,3.95 30.5,4.05Z" style="fill:rgb(250,214,143);"/>
            <path d="M26,1.5C26.2,1.6 26.2,1.9 26,2.4L25.85,2.65C25.817,2.617 25.733,2.567 25.6,2.5C25.5,2.467 25.433,2.383 25.4,2.25C25.367,2.083 25.317,1.967 25.25,1.9C25.15,1.767 25.2,1.633 25.4,1.5C25.6,1.367 25.8,1.367 26,1.5Z" style="fill:rgb(250,214,143);"/>
            <path d="M31.6,5.8C31.767,5.767 31.867,5.8 31.901,5.9C31.967,6 32.017,6.05 32.05,6.05C32.25,6.05 32.3,6.183 32.2,6.45L32.05,6.9L31.7,7.35C31.634,7.483 31.634,7.583 31.7,7.65C31.766,7.683 31.884,7.75 32.05,7.85C32.25,7.983 32.35,8.15 32.35,8.35C32.517,8.517 32.467,8.717 32.201,8.95C31.967,9.183 31.85,9.5 31.85,9.9L31.951,10.4C31.984,10.633 31.968,10.8 31.901,10.9C31.834,11 31.617,11.084 31.251,11.15L30.651,11.1C30.584,11.067 30.501,10.983 30.401,10.85C30.334,10.717 30.3,10.617 30.3,10.55L30.5,10.05L30.65,9.35C30.683,9.217 30.516,9.2 30.15,9.3C30.083,9.334 29.816,9.633 29.349,10.2C29.283,10.333 29.249,10.35 29.249,10.25L29.249,10.1C29.282,9.867 29.315,9.617 29.349,9.35C29.483,8.817 29.616,8.416 29.749,8.15C29.884,7.917 30,7.5 30.1,6.9C30.167,6.633 30.401,6.383 30.8,6.15C31.134,5.917 31.4,5.8 31.6,5.8Z" style="fill:rgb(250,214,143);"/>
            <path d="M29.95,15.45C29.884,15.617 29.816,15.733 29.75,15.8C29.55,16 29.566,15.867 29.8,15.4C29.8,15.3 29.884,15.084 30.05,14.75C30.217,14.383 30.384,14.15 30.55,14.05C30.717,13.95 30.734,13.817 30.6,13.65C30.434,13.35 30.35,13.167 30.35,13.1C30.25,12.666 30.8,12.55 32,12.75C32.167,12.783 32.25,12.933 32.25,13.2C32.25,13.367 32.217,13.6 32.15,13.9C32.083,14.167 31.95,14.267 31.75,14.2C31.583,14.533 31.417,14.817 31.25,15.05C31.15,15.183 31.05,15.234 30.95,15.2C30.783,15.166 30.616,15.166 30.45,15.2C30.217,15.267 30.05,15.35 29.95,15.45Z" style="fill:rgb(250,214,143);"/>
            <path d="M30.7,11.75C30.9,11.683 31.083,11.733 31.25,11.9C31.384,12.033 31.45,12.15 31.45,12.25C31.45,12.35 31.25,12.35 30.849,12.25L30.15,12.25L30.25,12.05C30.35,11.917 30.5,11.817 30.7,11.75Z" style="fill:rgb(250,214,143);"/>
        </g>
        <g>
            <path d="M5.15,13.9L6.05,13.85C6.25,13.85 6.5,14.017 6.8,14.35C6.967,14.517 6.917,14.666 6.65,14.8C6.383,14.934 6.117,14.984 5.85,14.95C5.65,14.916 5.467,14.733 5.3,14.4L5.15,13.9Z" style="fill:rgb(217,212,202);"/>
            <path d="M11.75,16.1L12.3,15.8C12.7,15.6 13,15.517 13.2,15.55C13.633,15.617 13.783,15.834 13.65,16.2C13.584,16.367 13.45,16.516 13.25,16.65C13.017,16.817 12.8,16.9 12.6,16.9C12.4,16.9 12.2,16.767 12,16.5L11.75,16.1Z" style="fill:rgb(217,212,202);"/>
            <path d="M21.6,16.65L22.75,16.15L23.2,16.15C23.833,16.15 24.15,16.317 24.15,16.65C24.15,16.95 23.717,17.1 22.85,17.1C22.55,17.1 22.25,17.033 21.95,16.9L21.6,16.65Z" style="fill:rgb(217,212,202);"/>
            <path d="M21.8,13.85L22.3,13.45L22.65,13.45C22.85,13.45 22.983,13.533 23.05,13.7C23.084,13.9 23,14.083 22.8,14.25C22.6,14.383 22.367,14.367 22.1,14.2L21.8,13.85Z" style="fill:rgb(217,212,202);"/>
            <path d="M25.5,21.25L26.1,21.25C26.5,21.25 26.8,21.283 27,21.35C27.3,21.517 27.317,21.75 27.05,22.05L26.55,22.05C26.35,22.05 26.117,21.917 25.85,21.65L25.5,21.25Z" style="fill:rgb(217,212,202);"/>
            <path d="M40.85,11.25L41.05,11.1C41.217,11.033 41.417,11.017 41.651,11.05C41.951,11.117 42.084,11.217 42.05,11.35C42.016,11.483 41.85,11.567 41.55,11.6C41.35,11.633 41.167,11.583 41,11.45L40.85,11.25Z" style="fill:rgb(217,212,202);"/>
            <path d="M38.25,10.75L38.6,10.55C38.867,10.417 39.1,10.35 39.3,10.35C39.533,10.35 39.634,10.433 39.6,10.6C39.567,10.8 39.401,10.933 39.1,11C38.867,11.1 38.651,11.083 38.451,10.95L38.25,10.75Z" style="fill:rgb(217,212,202);"/>
            <path d="M40.85,13.35C41.083,13.35 41.267,13.333 41.401,13.3L41.35,13.6C41.317,13.8 41.217,13.967 41.05,14.1C40.884,14.2 40.75,14.233 40.651,14.2L39.951,14.05L40.1,13.7C40.3,13.467 40.55,13.35 40.85,13.35Z" style="fill:rgb(217,212,202);"/>
        </g>
        <g>
            <path d="M12.85,14.95C13.416,15.35 13.6,15.75 13.4,16.15C13.3,16.383 13.217,16.5 13.15,16.5C13.05,16.433 12.95,16.4 12.85,16.4C12.383,16.4 12.017,16.3 11.75,16.1C11.617,15.967 11.7,15.6 12,15L12.25,14.45L12.85,14.95Z" style="fill:rgb(201,149,44);"/>
            <path d="M23.45,15.95C23.85,16.217 23.883,16.4 23.55,16.5C22.917,16.867 22.35,17 21.85,16.9C21.55,16.834 21.45,16.7 21.55,16.5C21.617,16.4 21.75,16.233 21.95,16L22.35,15.3L22.6,15.25C22.767,15.183 22.916,15.217 23.05,15.35L23.45,15.95Z" style="fill:rgb(201,149,44);"/>
            <path d="M22.35,13.3C22.783,13.267 22.933,13.433 22.8,13.8C22.734,14 22.467,14.05 22,13.95C21.733,13.916 21.7,13.8 21.9,13.6C22.1,13.4 22.25,13.3 22.35,13.3Z" style="fill:rgb(201,149,44);"/>
            <path d="M6.05,13.45C6.217,13.55 6.367,13.633 6.5,13.7C6.567,13.733 6.6,13.85 6.6,14.05C6.6,14.217 6.567,14.317 6.5,14.35C6.233,14.416 6.083,14.45 6.05,14.45C5.917,14.516 5.783,14.533 5.65,14.5C5.517,14.4 5.383,14.317 5.25,14.25C5.017,14.15 5.017,13.95 5.25,13.65C5.45,13.35 5.717,13.283 6.05,13.45Z" style="fill:rgb(201,149,44);"/>
            <path d="M26.05,21L26.55,21C26.883,21.033 27.033,21.15 27,21.35C26.967,21.517 26.933,21.583 26.9,21.55C26.834,21.517 26.733,21.533 26.6,21.6C26.433,21.7 26.283,21.733 26.15,21.7C26.017,21.6 25.867,21.533 25.7,21.5C25.5,21.433 25.433,21.317 25.5,21.15C25.6,21.017 25.783,20.967 26.05,21Z" style="fill:rgb(201,149,44);"/>
            <path d="M38.5,10.2C38.733,10.033 39.05,10.1 39.45,10.4L39.05,10.6C38.884,10.7 38.684,10.767 38.45,10.8C38.283,10.834 38.217,10.767 38.25,10.6C38.283,10.433 38.366,10.3 38.5,10.2Z" style="fill:rgb(201,149,44);"/>
            <path d="M41.35,10.85C41.617,10.883 41.75,10.967 41.75,11.1C41.717,11.233 41.583,11.333 41.35,11.4C41.184,11.467 41.067,11.467 41,11.4C40.967,11.334 40.917,11.283 40.85,11.25C40.75,11.183 40.75,11.1 40.85,11C40.95,10.867 41.116,10.817 41.35,10.85Z" style="fill:rgb(201,149,44);"/>
            <path d="M40.6,13.2C40.901,13.133 41.034,13.25 41,13.55C40.967,13.783 40.85,14 40.65,14.2C40.516,14.3 40.417,14.333 40.349,14.3C40.183,14.167 40.049,14.084 39.95,14.05C39.75,13.95 39.733,13.783 39.9,13.55C40.1,13.35 40.333,13.233 40.6,13.2Z" style="fill:rgb(201,149,44);"/>
        </g>
        <g>
            <path d="M10.7,5.2C10.567,5.333 10.433,5.483 10.3,5.65C10.033,5.983 9.85,6.25 9.75,6.45C9.617,6.75 9.45,7.383 9.25,8.35C9.017,9.45 8.9,10.333 8.9,11C8.9,11.667 8.85,12.1 8.75,12.3C8.65,12.467 8.4,12.767 8,13.2C7.5,13.833 6.933,14.3 6.3,14.6L7.7,14.35C8.033,14.283 8.45,14.2 8.95,14.1C9.416,14 9.983,13.783 10.65,13.45C11.35,13.15 12.067,12.6 12.8,11.8C13.567,11 14.05,10.2 14.25,9.4C14.583,7.267 14.9,5.567 15.2,4.3C15.6,2.334 16.117,1.25 16.75,1.05C17.283,0.917 17.683,0.917 17.95,1.05C17.617,1.117 17.283,1.367 16.95,1.8C16.383,2.433 15.933,4.084 15.6,6.75C15.367,8.85 14.933,10.467 14.3,11.6C14,12.133 13.367,12.733 12.4,13.4C11.467,14.067 10.483,14.584 9.45,14.95C7.783,15.55 6.35,15.833 5.15,15.8C4.617,15.767 4.45,15.533 4.65,15.1C4.817,14.767 5.117,14.433 5.55,14.1L6.85,13.2L7.9,12.15C8,12.05 8.084,11.567 8.15,10.7C8.25,9.333 8.334,8.45 8.4,8.05C8.5,7.283 8.733,6.633 9.1,6.1C9.3,5.833 9.567,5.55 9.9,5.25C10.1,4.983 10.367,4.967 10.7,5.2Z" style="fill:rgb(107,65,29);"/>
            <path d="M31.55,3.15L31.2,3.05C30.833,2.883 30.283,3.167 29.55,3.9C29.083,4.367 28.817,5 28.75,5.8C28.717,6.1 28.617,6.267 28.45,6.3C28.283,6.334 28.166,6.2 28.1,5.9C27.967,5.3 28.2,4.65 28.8,3.95C29.333,3.317 29.333,3.117 28.8,3.35C28.367,3.517 27.967,3.85 27.6,4.35C27.067,4.95 26.75,5.666 26.65,6.5C26.45,7.767 26.334,9.667 26.3,12.2C26.267,12.433 25.734,12.85 24.7,13.45C23.367,14.15 22.383,14.666 21.75,15C18.117,16.967 15.717,18.083 14.55,18.35C13.717,18.55 13.067,18.567 12.6,18.4C12.166,18.267 11.967,18 12,17.6C12.033,17.3 12.467,16.75 13.3,15.95C14,15.317 14.717,14.75 15.45,14.25C16.583,13.517 17.516,12.4 18.25,10.9C18.583,10.233 18.85,9.1 19.05,7.5C19.15,6.633 19.35,5.55 19.65,4.25C19.95,2.883 20.217,1.867 20.45,1.2C20.783,0.367 21.133,-0.033 21.5,0C21.7,0 21.95,0.1 22.25,0.3C21.817,0.5 21.45,0.917 21.15,1.55C20.683,2.583 20.3,4.567 20,7.5C19.633,10.667 18.65,12.917 17.05,14.25C15.683,15.417 14.567,16.333 13.7,17C13.4,17.2 13.45,17.3 13.85,17.3C14.25,17.267 14.617,17.15 14.95,16.95C15.183,16.85 16.05,16.5 17.55,15.9C19.084,15.267 20.117,14.75 20.65,14.35C21.517,13.717 22.933,12.833 24.9,11.7C25.067,11.567 25.167,11.15 25.2,10.45C25.333,8.516 25.416,7.45 25.45,7.25C25.75,4.617 26.533,3 27.8,2.4C28.867,1.9 29.7,1.817 30.3,2.15C30.833,2.45 31.25,2.783 31.55,3.15Z" style="fill:rgb(107,65,29);"/>
            <path d="M32.8,6.5C33.667,6.467 34.35,6.633 34.85,7C35.184,7.233 35.534,7.667 35.901,8.3C36.434,9.2 36.817,9.5 37.05,9.2C37.15,9.1 37.134,9.033 37,9C36.733,8.967 36.55,8.917 36.45,8.85C36.116,8.617 36.7,8.6 38.2,8.8C38.599,8.867 38.65,9.017 38.349,9.25C38.082,9.483 37.666,9.633 37.099,9.7C36.599,9.8 36.249,9.7 36.049,9.4L35.849,8.9C35.516,8.367 35.033,7.967 34.4,7.7C33.599,7.367 32.533,7.567 31.2,8.3C30.599,8.6 30.05,9.183 29.55,10.05C29.116,10.85 28.85,11.667 28.75,12.5C28.583,13.9 28.267,14.9 27.8,15.5C27.533,15.833 27.1,16.217 26.5,16.65L23.15,18.75L24.6,18.65C25.166,18.584 26.183,18.133 27.65,17.3C27.783,17.234 27.867,17.117 27.9,16.95C27.933,16.683 27.983,16.4 28.05,16.1C28.45,14.433 28.967,13.333 29.6,12.8C30.5,12.033 31.567,11.767 32.8,12C33.333,12.1 33.8,12.417 34.2,12.95C34.233,13.016 34.467,13.45 34.9,14.25C35.133,14.717 35.349,15.617 35.549,16.95C35.683,17.383 35.615,17.65 35.349,17.75C35.049,17.817 34.866,17.683 34.799,17.35C34.9,16.083 34.832,15.183 34.599,14.65C34.2,13.85 33.299,13.4 31.9,13.3C31.333,13.267 30.766,13.467 30.2,13.9C29.733,14.3 29.366,14.783 29.099,15.35C28.932,15.65 28.716,16.217 28.45,17.05C28.217,17.717 28.067,18.05 28,18.05L24.8,19.45C24.1,19.75 23.45,19.916 22.85,19.95C22.217,19.983 21.8,19.85 21.6,19.55C21.467,19.317 22.033,18.75 23.3,17.85C23.967,17.383 24.817,16.833 25.85,16.2C26.416,15.8 27.15,15.166 28.05,14.3L28,13.75C28,12.15 28.367,10.633 29.1,9.2C29.567,8.333 30.167,7.65 30.901,7.15C31.533,6.75 32.167,6.533 32.8,6.5Z" style="fill:rgb(107,65,29);"/>
        </g>
        <g>
            <path d="M9.4,6.05C9.733,5.65 9.917,5.517 9.95,5.65C9.683,6.05 9.483,6.334 9.35,6.5C9.25,6.633 9.133,6.967 9,7.5C8.867,8.067 8.783,8.6 8.75,9.1C8.683,9.833 8.583,10.35 8.45,10.65L8.4,10.1C8.333,9.4 8.417,8.533 8.65,7.5C8.783,6.933 9.033,6.45 9.4,6.05Z" style="fill:rgb(170,92,26);"/>
            <path d="M5.6,14.35C5.767,14.317 5.85,14.367 5.85,14.5C5.783,14.667 5.8,14.767 5.9,14.8C6.067,14.867 6.75,14.8 7.95,14.6C8.45,14.6 8.4,14.65 7.8,14.75L6.3,15.1C6,15.2 5.6,15.183 5.1,15.05C4.933,15.017 4.933,14.883 5.1,14.65C5.3,14.45 5.467,14.35 5.6,14.35Z" style="fill:rgb(170,92,26);"/>
            <path d="M15.35,4.4C15.65,2.733 15.967,1.767 16.3,1.5C16.533,1.3 16.7,1.217 16.8,1.25C16.9,1.25 16.883,1.333 16.75,1.5C16.583,1.633 16.4,1.917 16.2,2.35C16,2.817 15.867,3.25 15.8,3.65C15.734,4.25 15.417,5.8 14.85,8.3C14.683,9.234 14.483,9.75 14.25,9.85C14.383,9.65 14.483,9.317 14.55,8.85L15.35,4.4Z" style="fill:rgb(170,92,26);"/>
            <path d="M21.15,0.25C21.35,0.15 21.5,0.15 21.6,0.25L21.05,0.95C20.65,1.516 20.35,2.45 20.15,3.75L19.25,8.2C19.15,8.8 19.233,7.9 19.5,5.5C19.533,5.167 19.65,4.65 19.85,3.95C20.05,3.15 20.183,2.567 20.25,2.2C20.417,1.167 20.717,0.517 21.15,0.25Z" style="fill:rgb(170,92,26);"/>
            <path d="M14.5,15.1C14.833,14.8 15.3,14.5 15.9,14.2C16.467,13.867 16.633,13.817 16.4,14.05C15.933,14.383 15.55,14.7 15.25,15C15.05,15.233 14.367,15.683 13.2,16.35C13.033,16.416 13.233,16.2 13.8,15.7L14.5,15.1Z" style="fill:rgb(170,92,26);"/>
            <path d="M16.1,16.95C16.033,17.016 15.916,17.1 15.75,17.2C15.617,17.4 15.133,17.6 14.3,17.8C13.7,18 13.167,18.05 12.7,17.95C12.433,17.883 12.3,17.733 12.3,17.5C12.267,17.267 12.35,17.133 12.55,17.1C12.717,17.067 12.817,17.083 12.85,17.15C12.85,17.217 12.833,17.334 12.8,17.5C12.8,17.633 12.917,17.667 13.15,17.6C13.617,17.5 13.9,17.45 14,17.45C14.467,17.45 15.117,17.283 15.95,16.95C16.15,16.883 16.2,16.883 16.1,16.95Z" style="fill:rgb(170,92,26);"/>
            <path d="M29.6,2.9C29.534,2.933 29.467,2.917 29.401,2.85C29.367,2.75 29.284,2.717 29.151,2.75C28.617,2.917 28.167,3.083 27.8,3.25C27.334,3.483 26.883,4.167 26.45,5.3C26.283,5.767 26,6.75 25.6,8.25C25.567,8.317 25.617,7.75 25.75,6.55C25.883,5.417 26.25,4.4 26.85,3.5C27.283,2.8 27.95,2.367 28.85,2.2C29.65,2.166 30.2,2.3 30.5,2.6C30.667,2.8 30.366,2.9 29.6,2.9Z" style="fill:rgb(170,92,26);"/>
            <path d="M28.5,4.65C28.667,4.417 28.7,4.517 28.6,4.95C28.6,5.05 28.583,5.25 28.55,5.55C28.484,5.783 28.4,5.883 28.3,5.85C28.2,5.817 28.183,5.65 28.25,5.35C28.317,5.017 28.4,4.783 28.5,4.65Z" style="fill:rgb(170,92,26);"/>
            <path d="M25.2,11.75C25.333,11.75 25.467,11.817 25.6,11.95C25.7,12.083 25.717,12.183 25.65,12.25C25.617,12.283 25.367,12.3 24.9,12.3C24.667,12.334 24.617,12.25 24.75,12.05C24.85,11.85 25,11.75 25.2,11.75Z" style="fill:rgb(170,92,26);"/>
            <path d="M23.45,19.1L24.4,19.2C24.067,19.333 23.683,19.416 23.25,19.45C22.983,19.483 22.783,19.483 22.65,19.45C22.45,19.416 22.3,19.4 22.2,19.4C21.967,19.4 21.916,19.317 22.05,19.15C22.15,18.983 22.3,18.85 22.5,18.75C22.567,18.717 22.633,18.733 22.7,18.8C22.733,18.867 22.733,18.917 22.7,18.95C22.667,19.05 22.917,19.1 23.45,19.1Z" style="fill:rgb(170,92,26);"/>
            <path d="M31.6,7C32.6,6.633 33.35,6.667 33.85,7.1C33.717,7.1 33.184,7.217 32.25,7.45C31.517,7.583 30.9,7.85 30.4,8.25C30.233,8.383 29.933,8.783 29.5,9.45C29.134,10.05 28.933,10.35 28.9,10.35C28.834,10.283 29.067,9.767 29.6,8.8C30.033,7.933 30.7,7.333 31.6,7Z" style="fill:rgb(170,92,26);"/>
            <path d="M29.5,13.85C29.167,14.35 28.933,14.666 28.8,14.8C28.633,15.033 28.584,15.017 28.65,14.75C28.717,14.517 28.85,14.217 29.05,13.85C29.317,13.283 29.8,12.85 30.5,12.55C30.967,12.35 31.517,12.283 32.15,12.35C32.483,12.383 32.866,12.433 33.299,12.5C33.566,12.533 33.699,12.617 33.699,12.75C33.666,12.85 33.549,12.9 33.348,12.9C32.748,12.767 32.165,12.717 31.598,12.75C31.298,12.783 30.882,12.9 30.348,13.1C30.116,13.167 29.833,13.417 29.5,13.85Z" style="fill:rgb(170,92,26);"/>
            <path d="M37.8,8.85C38.1,8.817 38.217,8.867 38.15,9C38.116,9.1 38.016,9.2 37.849,9.3C37.616,9.4 37.45,9.35 37.349,9.15C37.217,8.95 37.366,8.85 37.8,8.85Z" style="fill:rgb(170,92,26);"/>
            <path d="M35.1,16.85C35.401,17.15 35.417,17.35 35.151,17.45C35.017,17.483 34.951,17.383 34.951,17.15C34.95,16.883 35,16.783 35.1,16.85Z" style="fill:rgb(170,92,26);"/>
        </g>
    </g>
    <defs>
        <linearGradient id="_Linear1" x1="0" y1="0" x2="1" y2="0" gradientUnits="userSpaceOnUse" gradientTransform="matrix(10.3744,28.7997,-28.7997,10.3744,19.0299,3.06215)"><stop offset="0" style="stop-color:rgb(227,227,227);stop-opacity:1"/><stop offset="1" style="stop-color:white;stop-opacity:1"/></linearGradient>
    </defs>
</svg>
